<?xml version="1.0" standalone="no"?>
<!DOCTYPE svg PUBLIC "-//W3C//DTD SVG 20010904//EN"
 "http://www.w3.org/TR/2001/REC-SVG-20010904/DTD/svg10.dtd">
<svg version="1.0" xmlns="http://www.w3.org/2000/svg"
 width="83.000000pt" height="83.000000pt" viewBox="0 0 83.000000 83.000000"
 preserveAspectRatio="xMidYMid meet">
<metadata>
Created by potrace 1.14, written by Peter Selinger 2001-2017
</metadata>
<g transform="translate(0.000000,83.000000) scale(0.100000,-0.100000)"
fill="#000000" stroke="none">
<path d="M42 813 c-15 -28 14 -104 81 -216 31 -51 57 -97 57 -102 0 -5 -13 4
-30 20 -89 85 7 -70 102 -164 33 -34 65 -61 70 -61 10 0 -26 55 -42 65 -6 3
-15 15 -20 26 -21 38 10 19 77 -49 83 -82 103 -98 103 -83 0 6 -26 40 -58 74
-148 160 -302 391 -302 453 0 29 65 10 138 -42 62 -44 65 -45 35 -13 -40 42
-127 96 -170 105 -24 5 -33 2 -41 -13z"/>
<path d="M150 703 c0 -57 68 -159 206 -310 44 -48 93 -102 111 -122 17 -20 46
-45 65 -56 l33 -19 -19 29 c-14 22 -5 16 36 -21 57 -55 114 -89 122 -76 3 5
-6 28 -20 51 l-24 44 26 65 c77 193 -48 395 -251 406 -62 3 -116 -12 -174 -49
l-45 -28 -18 23 c-36 44 -16 79 24 43 17 -15 18 -15 13 -1 -6 14 -61 48 -79
48 -3 0 -6 -12 -6 -27z m347 -108 c82 -34 126 -105 127 -201 0 -52 -4 -68 -27
-98 -34 -44 -31 -46 -162 95 -55 59 -102 105 -104 103 -2 -2 2 -10 9 -19 11
-13 10 -14 -4 -9 -9 4 -28 23 -42 43 l-24 36 22 18 c58 45 141 58 205 32z"/>
<path d="M74 525 c4 -16 34 -69 66 -117 33 -49 57 -88 55 -88 -2 0 -22 19 -45
43 l-41 42 26 -70 c42 -113 34 -104 253 -272 51 -39 80 -44 37 -6 -16 14 -46
40 -66 57 -20 17 -41 41 -48 54 -12 23 -12 23 12 10 14 -7 43 -29 64 -48 51
-47 103 -86 128 -93 13 -5 8 3 -15 23 -19 17 -38 30 -42 30 -20 0 -5 19 20 25
l27 7 -34 29 c-19 15 -57 36 -84 46 -65 23 -115 74 -228 231 -62 86 -89 117
-85 97z"/>
<path d="M694 215 c10 -16 28 -48 41 -70 28 -46 32 -90 10 -99 -25 -9 -96 30
-173 95 -74 63 -114 77 -65 24 43 -47 133 -111 195 -140 47 -21 61 -24 79 -15
18 10 20 17 14 48 -9 49 -50 124 -87 159 l-30 28 16 -30z"/>
</g>
</svg>
